<?xml version="1.0" encoding="UTF-8" standalone="no"?>
<!-- Created with Inkscape (http://www.inkscape.org/) -->
<svg
   xmlns:dc="http://purl.org/dc/elements/1.1/"
   xmlns:cc="http://creativecommons.org/ns#"
   xmlns:rdf="http://www.w3.org/1999/02/22-rdf-syntax-ns#"
   xmlns:svg="http://www.w3.org/2000/svg"
   xmlns="http://www.w3.org/2000/svg"
   xmlns:sodipodi="http://sodipodi.sourceforge.net/DTD/sodipodi-0.dtd"
   xmlns:inkscape="http://www.inkscape.org/namespaces/inkscape"
   width="85mm"
   height="54mm"
   id="svg3577"
   sodipodi:version="0.32"
   inkscape:version="0.46"
   sodipodi:docname="homeoutfitterslogo.svg"
   inkscape:output_extension="org.inkscape.output.svg.inkscape">
  <defs
     id="defs3">
    <inkscape:perspective
       sodipodi:type="inkscape:persp3d"
       inkscape:vp_x="0 : 95.669289 : 1"
       inkscape:vp_y="0 : 1000 : 0"
       inkscape:vp_z="301.18109 : 95.669289 : 1"
       inkscape:persp3d-origin="150.59055 : 63.779526 : 1"
       id="perspective3584" />
  </defs>
  <sodipodi:namedview
     id="base"
     pagecolor="#ffffff"
     bordercolor="#666666"
     borderopacity="1.0"
     inkscape:pageopacity="0.0"
     inkscape:pageshadow="2"
     inkscape:zoom="1.2"
     inkscape:cx="160"
     inkscape:cy="90"
     inkscape:document-units="mm"
     inkscape:current-layer="layer1"
     showgrid="false"
     inkscape:window-width="1530"
     inkscape:window-height="1000"
     inkscape:window-x="-8"
     inkscape:window-y="-8" />
  <metadata
     id="metadata3581">
    <rdf:RDF>
      <cc:Work
         rdf:about="">
        <dc:format>image/svg+xml</dc:format>
        <dc:type
           rdf:resource="http://purl.org/dc/dcmitype/StillImage" />
      </cc:Work>
    </rdf:RDF>
  </metadata>
  <g
     inkscape:label="Layer 1"
     inkscape:groupmode="layer"
     id="layer1">
    <path
       d="M 42.60179,106.05525 C 48.81204,105.88298 51.192475,111.55788 51.192475,116.91861 C 51.192475,123.41433 48.81204,128.21772 42.726571,128.21772 C 35.978803,128.21772 34.318259,121.9348 34.318259,116.91861 C 34.318259,111.94296 36.218764,106.05525 42.60179,106.05525 M 42.726571,96.448482 C 29.36541,96.448482 20.237201,104.47439 20.237201,116.797 C 20.237201,130.16339 29.24063,137.81436 42.726571,137.81436 C 55.444625,137.81436 65.292722,130.285 65.292722,116.91861 C 65.292722,106.54167 58.065026,96.448482 42.726571,96.448482"
       style="fill:#3dd7bb;fill-opacity:1;fill-rule:nonzero;stroke:none"
       id="path2550" />
    <path
       d="M 99.607487,136.77059 L 88.08924,136.77059 L 88.08924,132.57522 C 84.98891,136.51725 81.955779,137.59142 76.81096,137.59142 C 70.015204,137.59142 65.59027,133.78113 65.59027,125.59308 L 65.59027,108.18334 L 78.010779,108.18334 L 78.010779,123.62713 C 78.010779,127.55903 79.488957,128.80547 82.474099,128.80547 C 86.063955,128.80547 87.177376,126.36325 87.177376,121.9348 L 87.177376,108.18334 L 99.607487,108.18334 L 99.607487,136.77059"
       style="fill:#3dd7bb;fill-opacity:1;fill-rule:nonzero;stroke:none"
       id="path2552" />
    <path
       d="M 122.64396,136.77059 C 106.37445,137.59142 104.38755,136.55777 104.38755,126.67739 L 104.38755,114.72973 L 99.991417,114.72973 L 99.991417,108.18334 L 104.57952,108.18334 L 104.57952,99.285925 L 116.79846,99.285925 L 116.79846,108.18334 L 122.76874,108.18334 L 122.76874,114.72973 L 116.79846,114.72973 L 116.79846,125.1168 C 116.79846,127.72115 117.23039,128.65347 120.68587,128.65347 L 122.64396,128.65347 L 122.64396,136.77059"
       style="fill:#3dd7bb;fill-opacity:1;fill-rule:nonzero;stroke:none"
       id="path2554" />
    <path
       d="M 145.69964,108.18334 L 145.69964,114.72973 L 140.49724,114.72973 L 140.49724,136.77059 L 128.08634,136.77059 L 128.08634,114.72973 L 123.97816,114.72973 L 123.97816,108.18334 L 128.15352,108.18334 C 128.15352,98.100278 132.44406,96.448482 140.38205,96.448482 L 145.69964,96.448482 L 145.69964,103.59277 C 141.62987,103.59277 140.19009,103.59277 140.49724,108.18334 L 145.69964,108.18334"
       style="fill:#3dd7bb;fill-opacity:1;fill-rule:nonzero;stroke:none"
       id="path2556" />
    <path
       d="M 147.12982,136.77059 L 147.12982,108.18334 L 159.53113,108.18334 L 159.53113,136.77059 L 147.12982,136.77059 M 147.12982,96.448482 L 159.53113,96.448482 L 159.53113,104.52506 L 147.12982,104.52506 L 147.12982,96.448482"
       style="fill:#3dd7bb;fill-opacity:1;fill-rule:nonzero;stroke:none"
       id="path2558" />
    <path
       d="M 182.75959,136.77059 C 166.49006,137.59142 164.51276,136.55777 164.51276,126.67739 L 164.51276,114.72973 L 160.08785,114.72973 L 160.08785,108.18334 L 164.69514,108.18334 L 164.69514,99.285925 L 176.93327,99.285925 L 176.93327,108.18334 L 182.88436,108.18334 L 182.88436,114.72973 L 176.93327,114.72973 L 176.93327,125.1168 C 176.93327,127.72115 177.32681,128.65347 180.79188,128.65347 L 182.75959,128.65347 L 182.75959,136.77059"
       style="fill:#3dd7bb;fill-opacity:1;fill-rule:nonzero;stroke:none"
       id="path2560" />
    <path
       d="M 206.21839,136.77059 C 189.93929,137.59142 187.96199,136.55777 187.96199,126.67739 L 187.96199,114.72973 L 183.55625,114.72973 L 183.55625,108.18334 L 188.12516,108.18334 L 188.12516,99.285925 L 200.37289,99.285925 L 200.37289,108.18334 L 206.35278,108.18334 L 206.35278,114.72973 L 200.37289,114.72973 L 200.37289,125.1168 C 200.37289,127.72115 200.78563,128.65347 204.2507,128.65347 L 206.21839,128.65347 L 206.21839,136.77059"
       style="fill:#3dd7bb;fill-opacity:1;fill-rule:nonzero;stroke:none"
       id="path2562" />
    <path
       d="M 217.68864,119.26963 C 217.68864,116.20925 219.79072,114.29397 223.48616,114.29397 C 226.40411,114.29397 228.97652,116.645 228.97652,119.26963 L 217.68864,119.26963 M 241.38742,125.04586 C 241.56019,114.67905 234.58207,107.36251 223.00624,107.36251 C 212.99497,107.36251 205.29693,113.37181 205.29693,122.75564 C 205.29693,132.35228 213.05255,137.59142 223.07343,137.59142 C 230.33951,137.59142 238.21031,135.25052 240.37957,128.15692 L 228.487,128.15692 C 227.60393,129.84925 225.809,130.67008 223.84131,130.67008 C 220.5586,130.67008 217.68864,128.4204 217.68864,125.04586 L 241.38742,125.04586"
       style="fill:#3dd7bb;fill-opacity:1;fill-rule:nonzero;stroke:none"
       id="path2564" />
    <path
       d="M 242.28968,108.18334 L 253.56796,108.18334 L 253.56796,113.9697 L 253.69275,113.9697 C 255.41088,109.50073 258.46321,107.36251 263.29127,107.36251 C 263.82879,107.36251 264.36632,107.47398 264.90383,107.52465 L 264.90383,118.88455 C 264.07836,118.76295 263.1665,118.55014 262.33143,118.55014 C 257.2826,118.55014 254.70059,120.73902 254.70059,126.90033 L 254.70059,136.77059 L 242.28968,136.77059 L 242.28968,108.18334"
       style="fill:#3dd7bb;fill-opacity:1;fill-rule:nonzero;stroke:none"
       id="path2566" />
    <path
       d="M 277.00758,127.8833 C 277.00758,129.02842 277.47791,129.91004 278.31298,130.50793 C 279.09046,131.04503 280.1655,131.37944 281.36532,131.37944 C 283.27543,131.37944 285.29112,130.84235 285.29112,128.80547 C 285.29112,124.23516 266.15164,127.8833 266.15164,116.797 C 266.15164,109.50073 274.44478,107.36251 280.95258,107.36251 C 287.74834,107.36251 295.73432,108.78123 296.45421,116.36125 L 285.18554,116.36125 C 285.06075,115.43909 284.64801,114.78039 283.98572,114.29397 C 283.32341,113.80755 282.43076,113.58461 281.4805,113.58461 C 279.34002,113.58461 277.95783,114.19264 277.95783,115.61136 C 277.95783,119.59392 297.70202,116.91861 297.70202,127.60969 C 297.70202,133.55819 292.34604,137.59142 280.88539,137.59142 C 273.72489,137.59142 265.85409,135.5748 265.20138,127.8833 L 277.00758,127.8833"
       style="fill:#3dd7bb;fill-opacity:1;fill-rule:nonzero;stroke:none"
       id="path2568" />
    <path
       d="M 3.96465,93.555024 L 3.96465,51.529457 L 18.180095,51.529457 L 18.180095,65.725824 L 31.610633,65.725824 L 31.610633,51.529457 L 45.816385,51.529457 L 45.816385,93.555024 L 31.610633,93.555024 L 31.610633,77.277977 L 18.180095,77.277977 L 18.180095,93.555024 L 3.96465,93.555024"
       style="fill:#3854b9;fill-opacity:1;fill-rule:nonzero;stroke:none"
       id="path2570" />
    <path
       d="M 64.111376,70.277325 C 67.35758,70.093096 69.402194,73.463381 69.402194,77.97154 C 69.402194,83.747616 67.35758,86.261777 63.985408,86.261777 C 60.797354,86.261777 58.549234,83.747616 58.549234,77.97154 C 58.549234,74.536235 59.838025,70.277325 64.111376,70.277325 M 46.039263,78.610915 C 46.039263,89.057704 53.859206,94.44365 63.985408,94.44365 C 74.101924,94.44365 81.931553,89.176907 81.931553,77.97154 C 81.931553,68.456721 75.061242,62.10629 63.927272,62.10629 C 53.268112,62.10629 46.039263,67.99074 46.039263,78.610915"
       style="fill:#3854b9;fill-opacity:1;fill-rule:nonzero;stroke:none"
       id="path2572" />
    <path
       d="M 81.844348,62.99492 L 93.346547,62.99492 L 93.346547,67.524749 C 94.926038,65.194811 98.831167,62.10629 103.34678,62.10629 C 109.00583,62.10629 112.12605,64.436227 113.64741,67.698143 C 116.36064,64.024423 119.90724,62.10629 124.53912,62.10629 C 133.75446,62.10629 136.6615,67.112943 136.6615,75.468213 L 136.6615,93.555024 L 124.13214,93.555024 L 124.13214,77.97154 C 124.13214,73.463381 123.22127,71.67529 119.90724,71.67529 C 116.23467,71.67529 115.50791,74.763811 115.50791,78.448365 L 115.50791,93.555024 L 102.97855,93.555024 L 102.97855,77.97154 C 102.97855,73.463381 102.07737,71.67529 98.763337,71.67529 C 95.100469,71.67529 94.373702,74.763811 94.373702,78.448365 L 94.373702,93.555024 L 81.844348,93.555024 L 81.844348,62.99492"
       style="fill:#3854b9;fill-opacity:1;fill-rule:nonzero;stroke:none"
       id="path2574" />
    <path
       d="M 149.70444,74.828832 C 149.70444,71.556082 151.80719,69.518741 155.53791,69.518741 C 158.47402,69.518741 161.08066,72.022069 161.08066,74.828832 L 149.70444,74.828832 M 173.61002,81.016713 C 173.79414,69.919707 166.73003,62.10629 155.06308,62.10629 C 144.94657,62.10629 137.17508,68.510908 137.17508,78.556734 C 137.17508,88.819289 145.0144,94.44365 155.12123,94.44365 C 162.47605,94.44365 170.41227,91.929489 172.59256,84.343645 L 160.60585,84.343645 C 159.70467,86.142575 157.89261,87.020364 155.89644,87.020364 C 152.60179,87.020364 149.70444,84.625403 149.70444,81.016713 L 173.61002,81.016713"
       style="fill:#3854b9;fill-opacity:1;fill-rule:nonzero;stroke:none"
       id="path2576" />
  </g>
</svg>
